<svg xmlns="http://www.w3.org/2000/svg" viewBox="0 0 128 128">
  <defs>
    <linearGradient id="g" x1="0" y1="0" x2="1" y2="1">
      <stop offset="0" stop-color="#06b6d4"/>
      <stop offset="1" stop-color="#22d3ee"/>
    </linearGradient>
  </defs>
  <rect width="128" height="128" rx="28" fill="#0b1220"/>
  <path d="M24 78c10-22 30-38 58-38 8 0 16 1 22 4-6-2-12-3-19-3-26 0-44 15-54 37-3 6-4 13-4 19 0 3 0 6 1 9-3-8-5-18-4-28z" fill="url(#g)" opacity="0.9"/>
  <path d="M32 84c10-18 26-30 48-30 12 0 22 3 30 9-9-4-18-6-27-6-20 0-33 10-43 26-5 9-7 19-7 29 0 2 0 4 0 6-2-6-3-12-3-18 0-6 1-12 2-16z" fill="#06b6d4"/>
  <path d="M90 36h14v10H90z" fill="#22d3ee"/>
  <path d="M24 96h80v10H24z" fill="#0f172a" opacity="0.7"/>
</svg>
